<svg width="20" height="20" viewBox="0 0 20 20" fill="none" xmlns="http://www.w3.org/2000/svg">
<path fill-rule="evenodd" clip-rule="evenodd" d="M1.75 3.33325C1.75 2.91904 2.08579 2.58325 2.5 2.58325H3.00526C3.96494 2.58325 4.80481 3.14556 5.19324 3.97273C5.28688 3.9307 5.39071 3.90733 5.5 3.90733H15.355C16.9319 3.90733 18.0864 5.39316 17.6967 6.92117L16.5467 11.4304C16.2738 12.5009 15.3097 13.2499 14.205 13.2499H6.99474C5.76148 13.2499 4.72607 12.3213 4.59232 11.0953L3.91652 4.90051C3.86579 4.43548 3.47305 4.08325 3.00526 4.08325H2.5C2.08579 4.08325 1.75 3.74747 1.75 3.33325ZM5.48069 5.40708L6.08348 10.9327C6.13421 11.3977 6.52695 11.7499 6.99474 11.7499H14.205C14.624 11.7499 14.9897 11.4658 15.0933 11.0598L16.2432 6.55051C16.391 5.97092 15.9531 5.40733 15.355 5.40733H5.5C5.49354 5.40733 5.4871 5.40724 5.48069 5.40708ZM4.25 15.8333C4.25 14.9588 4.95888 14.2499 5.83333 14.2499C6.70779 14.2499 7.41667 14.9588 7.41667 15.8333C7.41667 16.7077 6.70779 17.4166 5.83333 17.4166C4.95888 17.4166 4.25 16.7077 4.25 15.8333ZM13.4167 15.8333C13.4167 14.9588 14.1255 14.2499 15 14.2499C15.8745 14.2499 16.5833 14.9588 16.5833 15.8333C16.5833 16.7077 15.8745 17.4166 15 17.4166C14.1255 17.4166 13.4167 16.7077 13.4167 15.8333Z" fill="#3C4242"/>
</svg>
