<svg width="20" height="20" viewBox="0 0 20 20" fill="none" xmlns="http://www.w3.org/2000/svg">
<path fill-rule="evenodd" clip-rule="evenodd" d="M4.30391 3.41675H15.6963C16.1378 3.41674 16.5138 3.41673 16.8225 3.44195C17.1468 3.46844 17.4623 3.52647 17.7639 3.68015C18.2186 3.91184 18.5883 4.28155 18.82 4.73627C18.9737 5.03788 19.0317 5.35338 19.0582 5.67768C19.0834 5.98637 19.0834 6.36235 19.0834 6.8039V13.1963C19.0834 13.6378 19.0834 14.0138 19.0582 14.3225C19.0317 14.6468 18.9737 14.9623 18.82 15.2639C18.5883 15.7186 18.2186 16.0883 17.7639 16.32C17.4623 16.4737 17.1468 16.5317 16.8225 16.5582C16.5138 16.5834 16.1378 16.5834 15.6963 16.5834H9.22231C8.864 16.5834 8.78378 16.5866 8.71311 16.6004C8.63581 16.6156 8.56078 16.6406 8.48988 16.6749C8.42505 16.7062 8.35895 16.7518 8.07231 16.9667L6.11675 18.4334C5.34764 19.0102 4.25008 18.4615 4.25008 17.5001V16.5834C3.83172 16.5834 3.47375 16.5824 3.17768 16.5582C2.85338 16.5317 2.53788 16.4737 2.23627 16.32C1.78155 16.0883 1.41184 15.7186 1.18015 15.2639C1.02647 14.9623 0.968443 14.6468 0.941947 14.3225C0.916726 14.0138 0.916736 13.6378 0.916749 13.1963V6.80391C0.916736 6.36236 0.916726 5.98637 0.941947 5.67768C0.968443 5.35338 1.02647 5.03788 1.18015 4.73627C1.41184 4.28155 1.78155 3.91184 2.23627 3.68015C2.53788 3.52647 2.85338 3.46844 3.17768 3.44195C3.48637 3.41673 3.86236 3.41674 4.30391 3.41675ZM3.29983 4.93697C3.06829 4.95588 2.97217 4.98868 2.91726 5.01666C2.74478 5.10454 2.60454 5.24478 2.51666 5.41726C2.48868 5.47217 2.45588 5.56829 2.43697 5.79983C2.41733 6.04012 2.41675 6.35433 2.41675 6.83342V13.1667C2.41675 13.6458 2.41733 13.96 2.43697 14.2003C2.45588 14.4319 2.48868 14.528 2.51666 14.5829C2.60454 14.7554 2.74478 14.8956 2.91726 14.9835C2.97217 15.0115 3.06829 15.0443 3.29983 15.0632C3.54012 15.0828 3.85433 15.0834 4.33342 15.0834C5.11582 15.0834 5.75008 15.7177 5.75008 16.5001V16.8334L7.1723 15.7667C7.18664 15.756 7.20083 15.7453 7.21488 15.7348C7.43697 15.568 7.62452 15.4271 7.83682 15.3245C8.02375 15.2341 8.22155 15.1681 8.42532 15.1283C8.65677 15.0831 8.89132 15.0832 9.16907 15.0834C9.18664 15.0834 9.20438 15.0834 9.22231 15.0834H15.6667C16.1458 15.0834 16.46 15.0828 16.7003 15.0632C16.9319 15.0443 17.028 15.0115 17.0829 14.9835C17.2554 14.8956 17.3956 14.7554 17.4835 14.5829C17.5115 14.528 17.5443 14.4319 17.5632 14.2003C17.5828 13.96 17.5834 13.6458 17.5834 13.1667V6.83342C17.5834 6.35433 17.5828 6.04012 17.5632 5.79983C17.5443 5.56829 17.5115 5.47217 17.4835 5.41726C17.3956 5.24478 17.2554 5.10454 17.0829 5.01666C17.028 4.98868 16.9319 4.95588 16.7003 4.93697C16.46 4.91733 16.1458 4.91675 15.6667 4.91675H4.33342C3.85433 4.91675 3.54012 4.91733 3.29983 4.93697ZM5.91675 8.33342C5.91675 7.9192 6.25254 7.58342 6.66675 7.58342H13.3334C13.7476 7.58342 14.0834 7.9192 14.0834 8.33342C14.0834 8.74763 13.7476 9.08342 13.3334 9.08342H6.66675C6.25254 9.08342 5.91675 8.74763 5.91675 8.33342ZM5.91675 11.6667C5.91675 11.2525 6.25254 10.9167 6.66675 10.9167H10.0001C10.4143 10.9167 10.7501 11.2525 10.7501 11.6667C10.7501 12.081 10.4143 12.4167 10.0001 12.4167H6.66675C6.25254 12.4167 5.91675 12.081 5.91675 11.6667Z" fill="#3C4242"/>
</svg>
