<svg width="20" height="20" viewBox="0 0 20 20" fill="none" xmlns="http://www.w3.org/2000/svg">
<path fill-rule="evenodd" clip-rule="evenodd" d="M9.99466 3.86766C8.23974 2.33814 5.64496 2.0255 3.62981 3.74185C1.44897 5.59931 1.13147 8.7291 2.85675 10.9422C3.51124 11.7817 4.78857 13.0428 6.016 14.1977C7.25784 15.3662 8.49681 16.4703 9.10781 17.0097L9.11947 17.02C9.17691 17.0707 9.24843 17.1339 9.317 17.1854C9.39913 17.247 9.51687 17.3235 9.67397 17.3702C9.88277 17.4323 10.1071 17.4323 10.3159 17.3702C10.473 17.3235 10.5908 17.247 10.6729 17.1854C10.7415 17.1339 10.813 17.0707 10.8704 17.02L10.8821 17.0097C11.4931 16.4703 12.7321 15.3662 13.9739 14.1977C15.2013 13.0428 16.4787 11.7817 17.1332 10.9422C18.8518 8.73763 18.5833 5.5837 16.3523 3.73529C14.3147 2.0471 11.7476 2.33756 9.99466 3.86766ZM9.42578 5.41861C8.14725 3.92863 6.11332 3.59692 4.60242 4.88379C3.02569 6.22672 2.81417 8.44785 4.03974 10.0199C4.61196 10.7539 5.80422 11.9389 7.04389 13.1053C8.2017 14.1946 9.35984 15.23 9.99496 15.7919C10.6301 15.23 11.7882 14.1946 12.946 13.1053C14.1857 11.9389 15.378 10.7539 15.9502 10.0199C17.1824 8.43931 16.9865 6.20867 15.3953 4.89035C13.8444 3.60538 11.837 3.9352 10.5641 5.41861C10.4217 5.58466 10.2138 5.68021 9.99496 5.68021C9.77616 5.68021 9.56826 5.58466 9.42578 5.41861Z" fill="#3C4242"/>
</svg>
