<svg width="20" height="20" viewBox="0 0 20 20" fill="none" xmlns="http://www.w3.org/2000/svg">
<path fill-rule="evenodd" clip-rule="evenodd" d="M17.4167 13.3333C17.4167 13.7475 17.081 14.0833 16.6667 14.0833L15.7501 14.0833L15.7501 17.5C15.7501 17.9142 15.4143 18.25 15.0001 18.25C14.5859 18.25 14.2501 17.9142 14.2501 17.5L14.2501 14.0833L13.3334 14.0833C12.9192 14.0833 12.5834 13.7475 12.5834 13.3333C12.5834 12.9191 12.9192 12.5833 13.3334 12.5833L16.6667 12.5833C17.081 12.5833 17.4167 12.9191 17.4167 13.3333ZM15.0001 1.75C15.4143 1.75 15.7501 2.08579 15.7501 2.5L15.7501 10C15.7501 10.4142 15.4143 10.75 15.0001 10.75C14.5859 10.75 14.2501 10.4142 14.2501 10L14.2501 2.5C14.2501 2.08579 14.5859 1.75 15.0001 1.75ZM12.4167 6.66667C12.4167 7.08088 12.081 7.41667 11.6667 7.41667L8.33341 7.41667C7.9192 7.41667 7.58341 7.08088 7.58341 6.66667C7.58341 6.25245 7.9192 5.91667 8.33341 5.91667L9.25008 5.91667L9.25008 2.5C9.25008 2.08579 9.58587 1.75 10.0001 1.75C10.4143 1.75 10.7501 2.08579 10.7501 2.5L10.7501 5.91667L11.6667 5.91667C12.081 5.91667 12.4167 6.25245 12.4167 6.66667ZM10.0001 9.25C10.4143 9.25 10.7501 9.58579 10.7501 10L10.7501 17.5C10.7501 17.9142 10.4143 18.25 10.0001 18.25C9.58587 18.25 9.25008 17.9142 9.25008 17.5L9.25008 10C9.25008 9.58579 9.58587 9.25 10.0001 9.25ZM7.41675 13.3333C7.41675 13.7475 7.08096 14.0833 6.66675 14.0833L5.75008 14.0833L5.75008 17.5C5.75008 17.9142 5.41429 18.25 5.00008 18.25C4.58587 18.25 4.25008 17.9142 4.25008 17.5L4.25008 14.0833L3.33341 14.0833C2.9192 14.0833 2.58341 13.7475 2.58341 13.3333C2.58341 12.9191 2.9192 12.5833 3.33341 12.5833L6.66675 12.5833C7.08096 12.5833 7.41675 12.9191 7.41675 13.3333ZM5.00008 1.75C5.4143 1.75 5.75008 2.08579 5.75008 2.5L5.75008 10C5.75008 10.4142 5.41429 10.75 5.00008 10.75C4.58587 10.75 4.25008 10.4142 4.25008 10L4.25008 2.5C4.25008 2.08579 4.58587 1.75 5.00008 1.75Z" fill="#3C4242"/>
</svg>
