<svg width="20" height="20" viewBox="0 0 20 20" fill="none" xmlns="http://www.w3.org/2000/svg">
<path fill-rule="evenodd" clip-rule="evenodd" d="M8.83334 3.75C6.02589 3.75 3.75 6.02589 3.75 8.83334C3.75 11.6408 6.02589 13.9167 8.83334 13.9167C11.6408 13.9167 13.9167 11.6408 13.9167 8.83334C13.9167 6.02589 11.6408 3.75 8.83334 3.75ZM2.25 8.83334C2.25 5.19746 5.19746 2.25 8.83334 2.25C12.4692 2.25 15.4167 5.19746 15.4167 8.83334C15.4167 10.381 14.8826 11.804 13.9887 12.928L17.697 16.6363C17.9899 16.9292 17.9899 17.4041 17.697 17.697C17.4041 17.9899 16.9292 17.9899 16.6363 17.697L12.928 13.9887C11.804 14.8826 10.381 15.4167 8.83334 15.4167C5.19746 15.4167 2.25 12.4692 2.25 8.83334Z" fill="#3C4242"/>
</svg>
