<svg width="20" height="20" viewBox="0 0 20 20" fill="none" xmlns="http://www.w3.org/2000/svg">
<path fill-rule="evenodd" clip-rule="evenodd" d="M7.08341 6.58333L5.75008 6.58333V14.8333C5.75008 15.3124 5.75066 15.6266 5.7703 15.8669C5.78922 16.0985 5.82201 16.1946 5.84999 16.2495C5.93788 16.422 6.07811 16.5622 6.25059 16.6501C6.3055 16.6781 6.40162 16.7109 6.63316 16.7298C6.87345 16.7494 7.18766 16.75 7.66675 16.75H12.3334C12.8125 16.75 13.1267 16.7494 13.367 16.7298C13.5985 16.7109 13.6947 16.6781 13.7496 16.6501C13.9221 16.5622 14.0623 16.422 14.1502 16.2495C14.1781 16.1946 14.2109 16.0985 14.2299 15.8669C14.2495 15.6266 14.2501 15.3124 14.2501 14.8333V6.58333H12.9176C12.9173 6.58333 12.9179 6.58333 12.9176 6.58333C12.9173 6.58333 12.9162 6.58333 12.9159 6.58333L7.08341 6.58333ZM13.6657 5.08333H15.8334C16.2476 5.08333 16.5834 5.41912 16.5834 5.83333C16.5834 6.24755 16.2476 6.58333 15.8334 6.58333H15.7501V14.8628C15.7501 15.3044 15.7501 15.6804 15.7249 15.9891C15.6984 16.3134 15.6404 16.6289 15.4867 16.9305C15.255 17.3852 14.8853 17.7549 14.4306 17.9866C14.1289 18.1403 13.8135 18.1983 13.4892 18.2248C13.1805 18.25 12.8045 18.25 12.3629 18.25H7.63727C7.1957 18.25 6.81971 18.25 6.51101 18.2248C6.18671 18.1983 5.87121 18.1403 5.5696 17.9866C5.11488 17.7549 4.74518 17.3852 4.51348 16.9305C4.3598 16.6289 4.30178 16.3134 4.27528 15.9891C4.25006 15.6804 4.25007 15.3044 4.25008 14.8628L4.25008 6.58333H4.16675C3.75253 6.58333 3.41675 6.24755 3.41675 5.83333C3.41675 5.41912 3.75253 5.08333 4.16675 5.08333H6.33446C6.38228 3.17616 8.06776 1.75 10.0001 1.75C11.9324 1.75 13.6179 3.17616 13.6657 5.08333ZM7.83552 5.08333C7.88428 4.11928 8.77402 3.25 10.0001 3.25C11.2261 3.25 12.1159 4.11928 12.1646 5.08333H7.83552ZM8.33342 7.58333C8.74763 7.58333 9.08342 7.91912 9.08342 8.33333V15C9.08342 15.4142 8.74763 15.75 8.33342 15.75C7.9192 15.75 7.58342 15.4142 7.58342 15V8.33333C7.58342 7.91912 7.9192 7.58333 8.33342 7.58333ZM11.6667 7.58333C12.081 7.58333 12.4167 7.91912 12.4167 8.33333V15C12.4167 15.4142 12.081 15.75 11.6667 15.75C11.2525 15.75 10.9167 15.4142 10.9167 15V8.33333C10.9167 7.91912 11.2525 7.58333 11.6667 7.58333Z" fill="#3C4242"/>
</svg>
