<svg width="20" height="20" viewBox="0 0 20 20" fill="none" xmlns="http://www.w3.org/2000/svg">
<path fill-rule="evenodd" clip-rule="evenodd" d="M9.99992 4.08325C8.11295 4.08325 6.58325 5.61295 6.58325 7.49992C6.58325 9.38689 8.11295 10.9166 9.99992 10.9166C11.8869 10.9166 13.4166 9.38689 13.4166 7.49992C13.4166 5.61295 11.8869 4.08325 9.99992 4.08325ZM12.993 11.4009C14.1627 10.5021 14.9166 9.08906 14.9166 7.49992C14.9166 4.78452 12.7153 2.58325 9.99992 2.58325C7.28452 2.58325 5.08325 4.78452 5.08325 7.49992C5.08325 9.08906 5.83718 10.5021 7.00688 11.4009C6.20026 11.6753 5.4657 12.0587 4.83587 12.5311C3.48738 13.5424 2.58325 14.9969 2.58325 16.6666C2.58325 17.0808 2.91904 17.4166 3.33325 17.4166C3.74747 17.4166 4.08325 17.0808 4.08325 16.6666C4.08325 15.5749 4.67151 14.5293 5.73587 13.7311C6.80046 12.9326 8.30556 12.4166 9.99992 12.4166C11.6943 12.4166 13.1994 12.9326 14.264 13.7311C15.3283 14.5293 15.9166 15.5749 15.9166 16.6666C15.9166 17.0808 16.2524 17.4166 16.6666 17.4166C17.0808 17.4166 17.4166 17.0808 17.4166 16.6666C17.4166 14.9969 16.5125 13.5424 15.164 12.5311C14.5341 12.0587 13.7996 11.6753 12.993 11.4009Z" fill="#3C4242"/>
</svg>
